name GIL06_slow2Moments.mot
datacolumns 7
datarows 27
range 0.23333348 0.45000014
endheader

                time	          RHipMoment	          LHipMoment	         RKneeMoment	         LKneeMoment	        RAnkleMoment	        LAnkleMoment	
          0.23333348	       -293.80099487	        448.97299194	         41.65205765	       -152.62690735	        -32.12234879	        157.50044250	
          0.24166681	       -298.46725464	        454.66430664	         59.62605667	       -166.94389343	        -32.43415070	        174.09091187	
          0.25000015	       -294.39129639	        456.23059082	         75.40088654	       -185.81921387	        -31.91278076	        192.96697998	
          0.25833347	       -283.75796509	        448.47695923	         88.20940399	       -206.38752747	        -30.66221237	        213.13188171	
          0.26666680	       -269.69659424	        435.64151001	         97.77922821	       -229.25335693	        -28.86040306	        233.99967957	
          0.27500015	       -255.03750610	        421.55734253	        104.02967072	       -253.88252258	        -26.73010063	        254.29830933	
          0.28333348	       -241.93481445	        408.66662598	        107.16603851	       -279.91516113	        -24.49933815	        275.24450684	
          0.29166681	       -231.42102051	        393.08935547	        107.58177185	       -303.41439819	        -22.35039330	        297.35287476	
          0.30000013	       -223.26814270	        376.91003418	        105.78504944	       -323.99758911	        -20.37532806	        321.03100586	
          0.30833349	       -216.22482300	        359.51364136	        102.13533783	       -341.34762573	        -18.58971977	        348.66198730	
          0.31666681	       -208.70974731	        344.52362061	         96.77693176	       -357.11251831	        -16.96559906	        380.09753418	
          0.32500014	       -199.34626770	        328.73474121	         89.72940826	       -369.93264771	        -15.44658661	        415.78298950	
          0.33333349	       -187.48898315	        310.40951538	         81.08277130	       -378.88336182	        -13.99585152	        454.52145386	
          0.34166682	       -173.16090393	        285.67654419	         70.99336243	       -381.27380371	        -12.61917496	        494.36276245	
          0.35000014	       -157.05793762	        261.98074341	         59.91597748	       -381.93280029	        -11.35674763	        535.22497559	
          0.35833347	       -140.27461243	        242.98999023	         48.58938599	       -383.54437256	        -10.28688240	        576.23193359	
          0.36666679	       -123.63993835	        229.85992432	         37.76763153	       -387.28668213	         -9.49713230	        616.21911621	
          0.37500015	       -107.63856506	        225.41748047	         28.15711594	       -394.30175781	         -9.05153751	        653.27893066	
          0.38333347	        -92.35827637	        224.21875000	         20.19388199	       -401.94909668	         -8.97412395	        686.61560059	
          0.39166683	        -77.40489960	        224.11105347	         13.88259029	       -410.64202881	         -9.23118210	        717.39587402	
          0.40000015	        -62.00955582	        219.91099548	          8.77029991	       -418.58963013	         -9.73174095	        747.06341553	
          0.40833348	        -45.29836655	        210.01640320	          3.98651052	       -424.61022949	        -10.34954262	        775.15313721	
          0.41666681	        -26.86782837	        196.32766724	         -1.37085712	       -429.94454956	        -10.93535423	        801.24719238	
          0.42500013	         -7.26004934	        179.88607788	         -7.84830713	       -434.91235352	        -11.35541058	        824.87548828	
          0.43333346	         12.68323803	        163.85386658	        -15.84322643	       -441.04080200	        -11.51998138	        846.87603760	
          0.44166681	         31.83199310	        146.84381104	        -25.44704247	       -446.06109619	        -11.38902378	        866.29315186	
          0.45000014	         48.66219711	        130.79417419	        -36.31776810	       -450.17813110	        -10.97527790	        882.49920654	
